<mxfile host="app.diagrams.net" modified="2021-12-02T12:47:28.764Z" agent="5.0 (Windows NT 10.0; Win64; x64) AppleWebKit/537.36 (KHTML, like Gecko) Chrome/96.0.4664.45 Safari/537.36" etag="Wi5cONjy43ZS9Lwm_8Ni" version="15.8.8" type="github">
  <diagram id="BdHbEBh6rbq1qQfQcoYi" name="Page-1">
    <mxGraphModel dx="1021" dy="529" grid="1" gridSize="10" guides="1" tooltips="1" connect="1" arrows="1" fold="1" page="1" pageScale="1" pageWidth="827" pageHeight="1169" math="0" shadow="0">
      <root>
        <mxCell id="0" />
        <mxCell id="1" parent="0" />
        <mxCell id="essa9dPwLCRXxrdYRUww-2" value="Requestor" style="text;html=1;align=center;verticalAlign=middle;resizable=0;points=[];autosize=1;strokeColor=none;fillColor=none;fontStyle=1;fontSize=14;" parent="1" vertex="1">
          <mxGeometry x="20" y="80" width="80" height="20" as="geometry" />
        </mxCell>
        <mxCell id="essa9dPwLCRXxrdYRUww-7" value="(sub-process)" style="text;html=1;align=center;verticalAlign=middle;resizable=0;points=[];autosize=1;strokeColor=none;fillColor=none;" parent="1" vertex="1">
          <mxGeometry x="610" y="130" width="90" height="20" as="geometry" />
        </mxCell>
        <mxCell id="essa9dPwLCRXxrdYRUww-11" value="No" style="text;html=1;align=center;verticalAlign=middle;resizable=0;points=[];autosize=1;strokeColor=none;fillColor=none;fontSize=14;" parent="1" vertex="1">
          <mxGeometry x="426" y="350" width="30" height="20" as="geometry" />
        </mxCell>
        <mxCell id="essa9dPwLCRXxrdYRUww-21" value="No" style="text;html=1;align=center;verticalAlign=middle;resizable=0;points=[];autosize=1;strokeColor=none;fillColor=none;fontSize=14;" parent="1" vertex="1">
          <mxGeometry x="600" y="461" width="30" height="20" as="geometry" />
        </mxCell>
        <mxCell id="essa9dPwLCRXxrdYRUww-22" value="Yes" style="text;html=1;align=center;verticalAlign=middle;resizable=0;points=[];autosize=1;strokeColor=none;fillColor=none;fontSize=14;" parent="1" vertex="1">
          <mxGeometry x="629" y="546" width="40" height="20" as="geometry" />
        </mxCell>
        <mxCell id="essa9dPwLCRXxrdYRUww-25" value="Tech. lead/&lt;br style=&quot;font-size: 14px&quot;&gt;SME" style="text;html=1;align=center;verticalAlign=middle;resizable=0;points=[];autosize=1;strokeColor=none;fillColor=none;fontStyle=1;fontSize=14;" parent="1" vertex="1">
          <mxGeometry y="636" width="90" height="40" as="geometry" />
        </mxCell>
        <mxCell id="essa9dPwLCRXxrdYRUww-30" value="[Notification]" style="text;html=1;align=center;verticalAlign=middle;resizable=0;points=[];autosize=1;strokeColor=none;fillColor=none;" parent="1" vertex="1">
          <mxGeometry x="120" y="393" width="80" height="20" as="geometry" />
        </mxCell>
        <mxCell id="essa9dPwLCRXxrdYRUww-32" value="HR/&lt;br style=&quot;font-size: 14px;&quot;&gt;Resourcing&lt;br style=&quot;font-size: 14px;&quot;&gt;lead" style="text;html=1;align=center;verticalAlign=middle;resizable=0;points=[];autosize=1;strokeColor=none;fillColor=none;fontSize=14;fontStyle=1" parent="1" vertex="1">
          <mxGeometry x="15" y="336" width="90" height="60" as="geometry" />
        </mxCell>
        <mxCell id="essa9dPwLCRXxrdYRUww-33" value="Hiring&lt;br style=&quot;font-size: 14px;&quot;&gt;executive" style="text;html=1;align=center;verticalAlign=middle;resizable=0;points=[];autosize=1;strokeColor=none;fillColor=none;fontStyle=1;fontSize=14;" parent="1" vertex="1">
          <mxGeometry x="10" y="491" width="80" height="40" as="geometry" />
        </mxCell>
        <mxCell id="essa9dPwLCRXxrdYRUww-34" value="" style="line;strokeWidth=4;direction=south;html=1;perimeter=backbonePerimeter;points=[];outlineConnect=0;fontSize=14;" parent="1" vertex="1">
          <mxGeometry x="100" y="40" width="10" height="800" as="geometry" />
        </mxCell>
        <mxCell id="essa9dPwLCRXxrdYRUww-39" value="" style="edgeStyle=orthogonalEdgeStyle;rounded=0;orthogonalLoop=1;jettySize=auto;html=1;fontSize=14;" parent="1" source="essa9dPwLCRXxrdYRUww-35" target="essa9dPwLCRXxrdYRUww-38" edge="1">
          <mxGeometry relative="1" as="geometry" />
        </mxCell>
        <mxCell id="essa9dPwLCRXxrdYRUww-35" value="&lt;span style=&quot;font-size: 12px&quot;&gt;Receive&lt;/span&gt;&lt;br style=&quot;font-size: 12px&quot;&gt;&lt;span style=&quot;font-size: 12px&quot;&gt;request&lt;/span&gt;" style="html=1;fontSize=14;" parent="1" vertex="1">
          <mxGeometry x="120" y="341" width="80" height="50" as="geometry" />
        </mxCell>
        <mxCell id="essa9dPwLCRXxrdYRUww-37" value="&lt;span style=&quot;font-size: 12px&quot;&gt;Assign&lt;/span&gt;&lt;br style=&quot;font-size: 12px&quot;&gt;&lt;span style=&quot;font-size: 12px&quot;&gt;hiring executive&lt;/span&gt;" style="html=1;fontSize=14;" parent="1" vertex="1">
          <mxGeometry x="468" y="341" width="90" height="50" as="geometry" />
        </mxCell>
        <mxCell id="essa9dPwLCRXxrdYRUww-38" value="&lt;span style=&quot;font-size: 12px&quot;&gt;Review&amp;nbsp;&lt;/span&gt;&lt;br style=&quot;font-size: 12px&quot;&gt;&lt;span style=&quot;font-size: 12px&quot;&gt;request&lt;/span&gt;" style="html=1;fontSize=14;" parent="1" vertex="1">
          <mxGeometry x="230" y="341" width="80" height="50" as="geometry" />
        </mxCell>
        <mxCell id="essa9dPwLCRXxrdYRUww-42" value="" style="edgeStyle=orthogonalEdgeStyle;rounded=0;orthogonalLoop=1;jettySize=auto;html=1;fontSize=14;" parent="1" source="essa9dPwLCRXxrdYRUww-38" target="essa9dPwLCRXxrdYRUww-41" edge="1">
          <mxGeometry relative="1" as="geometry" />
        </mxCell>
        <mxCell id="essa9dPwLCRXxrdYRUww-43" value="" style="edgeStyle=orthogonalEdgeStyle;rounded=0;orthogonalLoop=1;jettySize=auto;html=1;fontSize=14;" parent="1" source="essa9dPwLCRXxrdYRUww-41" target="essa9dPwLCRXxrdYRUww-37" edge="1">
          <mxGeometry relative="1" as="geometry" />
        </mxCell>
        <mxCell id="essa9dPwLCRXxrdYRUww-51" style="edgeStyle=orthogonalEdgeStyle;rounded=0;orthogonalLoop=1;jettySize=auto;html=1;fontSize=10;entryX=0.5;entryY=1;entryDx=0;entryDy=0;" parent="1" source="essa9dPwLCRXxrdYRUww-41" target="essa9dPwLCRXxrdYRUww-49" edge="1">
          <mxGeometry relative="1" as="geometry">
            <mxPoint x="350" y="150" as="targetPoint" />
          </mxGeometry>
        </mxCell>
        <mxCell id="essa9dPwLCRXxrdYRUww-41" value="&lt;span style=&quot;font-size: 12px&quot;&gt;Need more&lt;/span&gt;&lt;br style=&quot;font-size: 12px&quot;&gt;&lt;span style=&quot;font-size: 12px&quot;&gt;info&lt;/span&gt;" style="shape=rhombus;perimeter=rhombusPerimeter;whiteSpace=wrap;html=1;align=center;fontSize=14;" parent="1" vertex="1">
          <mxGeometry x="335" y="336" width="95" height="60" as="geometry" />
        </mxCell>
        <mxCell id="essa9dPwLCRXxrdYRUww-58" style="edgeStyle=orthogonalEdgeStyle;rounded=0;orthogonalLoop=1;jettySize=auto;html=1;entryX=0.5;entryY=1;entryDx=0;entryDy=0;fontSize=14;" parent="1" source="essa9dPwLCRXxrdYRUww-44" target="essa9dPwLCRXxrdYRUww-54" edge="1">
          <mxGeometry relative="1" as="geometry">
            <Array as="points">
              <mxPoint x="765" y="160" />
              <mxPoint x="508" y="160" />
            </Array>
          </mxGeometry>
        </mxCell>
        <mxCell id="essa9dPwLCRXxrdYRUww-44" value="&lt;span style=&quot;font-size: 12px&quot;&gt;If selected&lt;/span&gt;&lt;br style=&quot;font-size: 12px&quot;&gt;&lt;span style=&quot;font-size: 12px&quot;&gt;update request&lt;/span&gt;&lt;br style=&quot;font-size: 12px&quot;&gt;&lt;span style=&quot;font-size: 12px&quot;&gt;status&lt;/span&gt;" style="html=1;fontSize=14;align=left;" parent="1" vertex="1">
          <mxGeometry x="720" y="341" width="90" height="50" as="geometry" />
        </mxCell>
        <mxCell id="essa9dPwLCRXxrdYRUww-47" value="" style="edgeStyle=orthogonalEdgeStyle;rounded=0;orthogonalLoop=1;jettySize=auto;html=1;fontSize=14;" parent="1" source="essa9dPwLCRXxrdYRUww-45" target="essa9dPwLCRXxrdYRUww-44" edge="1">
          <mxGeometry relative="1" as="geometry" />
        </mxCell>
        <mxCell id="essa9dPwLCRXxrdYRUww-45" value="&lt;span style=&quot;font-size: 12px&quot;&gt;1. Receive request&lt;/span&gt;&lt;br style=&quot;font-size: 12px&quot;&gt;&lt;span style=&quot;font-size: 12px&quot;&gt;2. Condust interview&lt;/span&gt;&lt;br style=&quot;font-size: 12px&quot;&gt;&lt;span style=&quot;font-size: 12px&quot;&gt;3.Update feedback&lt;/span&gt;" style="html=1;fontSize=14;align=left;" parent="1" vertex="1">
          <mxGeometry x="580" y="341" width="120" height="50" as="geometry" />
        </mxCell>
        <mxCell id="essa9dPwLCRXxrdYRUww-48" value="" style="line;strokeWidth=1;fillColor=none;align=left;verticalAlign=middle;spacingTop=-1;spacingLeft=3;spacingRight=3;rotatable=0;labelPosition=right;points=[];portConstraint=eastwest;fontSize=10;" parent="1" vertex="1">
          <mxGeometry y="168" width="820" height="8" as="geometry" />
        </mxCell>
        <mxCell id="essa9dPwLCRXxrdYRUww-49" value="&lt;span style=&quot;font-size: 12px&quot;&gt;Update &amp;amp;&lt;/span&gt;&lt;br style=&quot;font-size: 12px&quot;&gt;&lt;span style=&quot;font-size: 12px&quot;&gt;Submit&lt;/span&gt;" style="html=1;fontSize=10;" parent="1" vertex="1">
          <mxGeometry x="266" y="65" width="80" height="65" as="geometry" />
        </mxCell>
        <mxCell id="essa9dPwLCRXxrdYRUww-88" value="" style="edgeStyle=orthogonalEdgeStyle;rounded=0;orthogonalLoop=1;jettySize=auto;html=1;fontSize=14;entryX=0.5;entryY=0;entryDx=0;entryDy=0;" parent="1" source="essa9dPwLCRXxrdYRUww-50" target="rNJ8v-M_O5Uz2Dv5Clo1-2" edge="1">
          <mxGeometry relative="1" as="geometry">
            <mxPoint x="160" y="170" as="targetPoint" />
          </mxGeometry>
        </mxCell>
        <mxCell id="essa9dPwLCRXxrdYRUww-50" value="&lt;span style=&quot;font-size: 12px;&quot;&gt;Create&lt;/span&gt;&lt;br style=&quot;font-size: 12px;&quot;&gt;&lt;span style=&quot;font-size: 12px;&quot;&gt;Resource&lt;/span&gt;&lt;br style=&quot;font-size: 12px;&quot;&gt;&lt;span style=&quot;font-size: 12px;&quot;&gt;Requisition&lt;/span&gt;" style="html=1;fontSize=10;align=center;" parent="1" vertex="1">
          <mxGeometry x="120" y="65" width="80" height="65" as="geometry" />
        </mxCell>
        <mxCell id="essa9dPwLCRXxrdYRUww-52" value="Yes" style="text;html=1;align=center;verticalAlign=middle;resizable=0;points=[];autosize=1;strokeColor=none;fillColor=none;fontSize=14;" parent="1" vertex="1">
          <mxGeometry x="352" y="317" width="40" height="20" as="geometry" />
        </mxCell>
        <mxCell id="essa9dPwLCRXxrdYRUww-56" value="" style="edgeStyle=orthogonalEdgeStyle;rounded=0;orthogonalLoop=1;jettySize=auto;html=1;fontSize=14;" parent="1" source="essa9dPwLCRXxrdYRUww-54" edge="1">
          <mxGeometry relative="1" as="geometry">
            <mxPoint x="600" y="97.5" as="targetPoint" />
          </mxGeometry>
        </mxCell>
        <mxCell id="essa9dPwLCRXxrdYRUww-54" value="&lt;span style=&quot;font-size: 12px&quot;&gt;Receive&lt;/span&gt;&lt;br style=&quot;font-size: 12px&quot;&gt;&lt;span style=&quot;font-size: 12px&quot;&gt;Update&lt;/span&gt;" style="html=1;fontSize=14;" parent="1" vertex="1">
          <mxGeometry x="468" y="65" width="80" height="65" as="geometry" />
        </mxCell>
        <mxCell id="essa9dPwLCRXxrdYRUww-59" value="&lt;span style=&quot;font-size: 12px&quot;&gt;Handover&lt;/span&gt;&lt;br style=&quot;font-size: 12px&quot;&gt;&lt;span style=&quot;font-size: 12px&quot;&gt;Process&lt;/span&gt;" style="shape=process;whiteSpace=wrap;html=1;backgroundOutline=1;fontSize=14;" parent="1" vertex="1">
          <mxGeometry x="600" y="65" width="120" height="65" as="geometry" />
        </mxCell>
        <mxCell id="essa9dPwLCRXxrdYRUww-61" value="" style="line;strokeWidth=1;fillColor=none;align=left;verticalAlign=middle;spacingTop=-1;spacingLeft=3;spacingRight=3;rotatable=0;labelPosition=right;points=[];portConstraint=eastwest;fontSize=10;" parent="1" vertex="1">
          <mxGeometry y="286" width="820" height="8" as="geometry" />
        </mxCell>
        <mxCell id="essa9dPwLCRXxrdYRUww-67" value="" style="edgeStyle=orthogonalEdgeStyle;rounded=0;orthogonalLoop=1;jettySize=auto;html=1;fontSize=14;" parent="1" source="essa9dPwLCRXxrdYRUww-62" target="essa9dPwLCRXxrdYRUww-65" edge="1">
          <mxGeometry relative="1" as="geometry" />
        </mxCell>
        <mxCell id="essa9dPwLCRXxrdYRUww-77" style="edgeStyle=orthogonalEdgeStyle;rounded=0;orthogonalLoop=1;jettySize=auto;html=1;fontSize=14;exitX=0.5;exitY=0;exitDx=0;exitDy=0;" parent="1" source="essa9dPwLCRXxrdYRUww-70" target="essa9dPwLCRXxrdYRUww-62" edge="1">
          <mxGeometry relative="1" as="geometry">
            <Array as="points">
              <mxPoint x="635" y="461" />
              <mxPoint x="280" y="461" />
            </Array>
          </mxGeometry>
        </mxCell>
        <mxCell id="essa9dPwLCRXxrdYRUww-62" value="&lt;span style=&quot;font-size: 12px&quot;&gt;Process&lt;/span&gt;&lt;br style=&quot;font-size: 12px&quot;&gt;&lt;span style=&quot;font-size: 12px&quot;&gt;request&lt;/span&gt;&lt;br style=&quot;font-size: 12px&quot;&gt;&lt;span style=&quot;font-size: 12px&quot;&gt;&amp;amp; initial screening&lt;/span&gt;" style="html=1;fontSize=14;" parent="1" vertex="1">
          <mxGeometry x="230" y="491" width="100" height="50" as="geometry" />
        </mxCell>
        <mxCell id="essa9dPwLCRXxrdYRUww-64" value="" style="edgeStyle=orthogonalEdgeStyle;rounded=0;orthogonalLoop=1;jettySize=auto;html=1;fontSize=14;" parent="1" source="essa9dPwLCRXxrdYRUww-63" target="essa9dPwLCRXxrdYRUww-62" edge="1">
          <mxGeometry relative="1" as="geometry" />
        </mxCell>
        <mxCell id="essa9dPwLCRXxrdYRUww-63" value="&lt;span style=&quot;font-size: 12px&quot;&gt;Receive&amp;nbsp;&lt;/span&gt;&lt;br style=&quot;font-size: 12px&quot;&gt;&lt;span style=&quot;font-size: 12px&quot;&gt;request&lt;/span&gt;" style="html=1;fontSize=14;" parent="1" vertex="1">
          <mxGeometry x="120" y="491" width="80" height="50" as="geometry" />
        </mxCell>
        <mxCell id="essa9dPwLCRXxrdYRUww-65" value="&lt;span style=&quot;font-size: 12px&quot;&gt;Setup first&lt;/span&gt;&lt;br style=&quot;font-size: 12px&quot;&gt;&lt;span style=&quot;font-size: 12px&quot;&gt;interview round&lt;/span&gt;&lt;br style=&quot;font-size: 12px&quot;&gt;&lt;span style=&quot;font-size: 12px&quot;&gt;(Tech)&lt;/span&gt;" style="html=1;fontSize=14;" parent="1" vertex="1">
          <mxGeometry x="366" y="491" width="100" height="50" as="geometry" />
        </mxCell>
        <mxCell id="essa9dPwLCRXxrdYRUww-75" value="" style="edgeStyle=orthogonalEdgeStyle;rounded=0;orthogonalLoop=1;jettySize=auto;html=1;fontSize=14;" parent="1" source="essa9dPwLCRXxrdYRUww-66" target="essa9dPwLCRXxrdYRUww-70" edge="1">
          <mxGeometry relative="1" as="geometry" />
        </mxCell>
        <mxCell id="essa9dPwLCRXxrdYRUww-66" value="&lt;span style=&quot;font-size: 12px&quot;&gt;Receive&amp;nbsp;&lt;/span&gt;&lt;br style=&quot;font-size: 12px&quot;&gt;&lt;span style=&quot;font-size: 12px&quot;&gt;feedback&lt;/span&gt;" style="html=1;fontSize=14;" parent="1" vertex="1">
          <mxGeometry x="485" y="491" width="80" height="50" as="geometry" />
        </mxCell>
        <mxCell id="essa9dPwLCRXxrdYRUww-74" value="" style="edgeStyle=orthogonalEdgeStyle;rounded=0;orthogonalLoop=1;jettySize=auto;html=1;fontSize=14;" parent="1" source="essa9dPwLCRXxrdYRUww-70" target="essa9dPwLCRXxrdYRUww-71" edge="1">
          <mxGeometry relative="1" as="geometry" />
        </mxCell>
        <mxCell id="essa9dPwLCRXxrdYRUww-70" value="&lt;span style=&quot;font-size: 12px&quot;&gt;Passed&lt;/span&gt;" style="shape=rhombus;perimeter=rhombusPerimeter;whiteSpace=wrap;html=1;align=center;fontSize=14;" parent="1" vertex="1">
          <mxGeometry x="600" y="486" width="70" height="60" as="geometry" />
        </mxCell>
        <mxCell id="essa9dPwLCRXxrdYRUww-73" style="edgeStyle=orthogonalEdgeStyle;rounded=0;orthogonalLoop=1;jettySize=auto;html=1;entryX=0.5;entryY=1;entryDx=0;entryDy=0;fontSize=14;" parent="1" source="essa9dPwLCRXxrdYRUww-71" target="essa9dPwLCRXxrdYRUww-45" edge="1">
          <mxGeometry relative="1" as="geometry">
            <Array as="points">
              <mxPoint x="765" y="451" />
              <mxPoint x="640" y="451" />
            </Array>
          </mxGeometry>
        </mxCell>
        <mxCell id="essa9dPwLCRXxrdYRUww-71" value="&lt;span style=&quot;font-size: 12px&quot;&gt;Assign HR&lt;/span&gt;&lt;br style=&quot;font-size: 12px&quot;&gt;&lt;span style=&quot;font-size: 12px&quot;&gt;Manager for&lt;/span&gt;&lt;br style=&quot;font-size: 12px&quot;&gt;&lt;span style=&quot;font-size: 12px&quot;&gt;2&#39;nd round&lt;/span&gt;" style="html=1;fontSize=14;" parent="1" vertex="1">
          <mxGeometry x="630" y="740" width="160" height="50" as="geometry" />
        </mxCell>
        <mxCell id="essa9dPwLCRXxrdYRUww-82" value="" style="edgeStyle=orthogonalEdgeStyle;rounded=0;orthogonalLoop=1;jettySize=auto;html=1;fontSize=14;" parent="1" source="essa9dPwLCRXxrdYRUww-72" target="essa9dPwLCRXxrdYRUww-78" edge="1">
          <mxGeometry relative="1" as="geometry" />
        </mxCell>
        <mxCell id="essa9dPwLCRXxrdYRUww-72" value="&lt;span style=&quot;font-size: 12px&quot;&gt;Receive&lt;/span&gt;&lt;br style=&quot;font-size: 12px&quot;&gt;&lt;span style=&quot;font-size: 12px&quot;&gt;request&lt;/span&gt;" style="html=1;fontSize=14;" parent="1" vertex="1">
          <mxGeometry x="120" y="631" width="80" height="50" as="geometry" />
        </mxCell>
        <mxCell id="essa9dPwLCRXxrdYRUww-83" value="" style="edgeStyle=orthogonalEdgeStyle;rounded=0;orthogonalLoop=1;jettySize=auto;html=1;fontSize=14;" parent="1" source="essa9dPwLCRXxrdYRUww-78" target="essa9dPwLCRXxrdYRUww-79" edge="1">
          <mxGeometry relative="1" as="geometry" />
        </mxCell>
        <mxCell id="essa9dPwLCRXxrdYRUww-78" value="&lt;span style=&quot;font-size: 12px&quot;&gt;Offline&lt;/span&gt;&lt;br style=&quot;font-size: 12px&quot;&gt;&lt;span style=&quot;font-size: 12px&quot;&gt;interview&lt;/span&gt;" style="html=1;fontSize=14;" parent="1" vertex="1">
          <mxGeometry x="230" y="631" width="80" height="50" as="geometry" />
        </mxCell>
        <mxCell id="essa9dPwLCRXxrdYRUww-84" style="edgeStyle=orthogonalEdgeStyle;rounded=0;orthogonalLoop=1;jettySize=auto;html=1;entryX=0.5;entryY=1;entryDx=0;entryDy=0;fontSize=14;" parent="1" source="essa9dPwLCRXxrdYRUww-79" target="essa9dPwLCRXxrdYRUww-66" edge="1">
          <mxGeometry relative="1" as="geometry">
            <Array as="points">
              <mxPoint x="423" y="560" />
              <mxPoint x="525" y="560" />
            </Array>
          </mxGeometry>
        </mxCell>
        <mxCell id="essa9dPwLCRXxrdYRUww-79" value="&lt;span style=&quot;font-size: 12px&quot;&gt;Update&lt;/span&gt;&lt;br style=&quot;font-size: 12px&quot;&gt;&lt;span style=&quot;font-size: 12px&quot;&gt;feedback&lt;/span&gt;&lt;br style=&quot;font-size: 12px&quot;&gt;&lt;span style=&quot;font-size: 12px&quot;&gt;form&lt;/span&gt;" style="html=1;fontSize=14;" parent="1" vertex="1">
          <mxGeometry x="366" y="631" width="114" height="50" as="geometry" />
        </mxCell>
        <mxCell id="essa9dPwLCRXxrdYRUww-85" value="" style="line;strokeWidth=1;fillColor=none;align=left;verticalAlign=middle;spacingTop=-1;spacingLeft=3;spacingRight=3;rotatable=0;labelPosition=right;points=[];portConstraint=eastwest;fontSize=10;" parent="1" vertex="1">
          <mxGeometry y="431" width="820" height="8" as="geometry" />
        </mxCell>
        <mxCell id="essa9dPwLCRXxrdYRUww-86" value="" style="line;strokeWidth=1;fillColor=none;align=left;verticalAlign=middle;spacingTop=-1;spacingLeft=3;spacingRight=3;rotatable=0;labelPosition=right;points=[];portConstraint=eastwest;fontSize=10;" parent="1" vertex="1">
          <mxGeometry y="582" width="820" height="8" as="geometry" />
        </mxCell>
        <mxCell id="rNJ8v-M_O5Uz2Dv5Clo1-5" value="" style="edgeStyle=orthogonalEdgeStyle;rounded=0;orthogonalLoop=1;jettySize=auto;html=1;fontSize=14;" edge="1" parent="1" source="rNJ8v-M_O5Uz2Dv5Clo1-2" target="essa9dPwLCRXxrdYRUww-35">
          <mxGeometry relative="1" as="geometry" />
        </mxCell>
        <mxCell id="rNJ8v-M_O5Uz2Dv5Clo1-2" value="Assign&lt;br&gt;Budget" style="html=1;fontSize=14;" vertex="1" parent="1">
          <mxGeometry x="120" y="200" width="80" height="50" as="geometry" />
        </mxCell>
        <mxCell id="rNJ8v-M_O5Uz2Dv5Clo1-3" value="&lt;span style=&quot;color: rgb(36 , 36 , 36) ; font-family: &amp;quot;segoe ui&amp;quot; , , &amp;quot;apple color emoji&amp;quot; , &amp;quot;segoe ui emoji&amp;quot; , sans-serif ; background-color: rgb(255 , 255 , 255)&quot;&gt;Budget&lt;br&gt;Approver&lt;br&gt;&lt;/span&gt;" style="text;html=1;align=center;verticalAlign=middle;resizable=0;points=[];autosize=1;strokeColor=none;fillColor=none;fontSize=14;fontStyle=1" vertex="1" parent="1">
          <mxGeometry x="18" y="200" width="80" height="40" as="geometry" />
        </mxCell>
        <mxCell id="rNJ8v-M_O5Uz2Dv5Clo1-6" value="" style="line;strokeWidth=1;fillColor=none;align=left;verticalAlign=middle;spacingTop=-1;spacingLeft=3;spacingRight=3;rotatable=0;labelPosition=right;points=[];portConstraint=eastwest;fontSize=10;" vertex="1" parent="1">
          <mxGeometry y="710" width="820" height="8" as="geometry" />
        </mxCell>
        <mxCell id="rNJ8v-M_O5Uz2Dv5Clo1-7" value="" style="line;strokeWidth=1;fillColor=none;align=left;verticalAlign=middle;spacingTop=-1;spacingLeft=3;spacingRight=3;rotatable=0;labelPosition=right;points=[];portConstraint=eastwest;fontSize=10;" vertex="1" parent="1">
          <mxGeometry y="816" width="820" height="8" as="geometry" />
        </mxCell>
        <mxCell id="rNJ8v-M_O5Uz2Dv5Clo1-8" value="HR&lt;br&gt;Manager" style="text;html=1;align=center;verticalAlign=middle;resizable=0;points=[];autosize=1;strokeColor=none;fillColor=none;fontSize=14;fontStyle=1" vertex="1" parent="1">
          <mxGeometry x="15" y="740" width="70" height="40" as="geometry" />
        </mxCell>
        <mxCell id="rNJ8v-M_O5Uz2Dv5Clo1-9" value="" style="line;strokeWidth=1;fillColor=none;align=left;verticalAlign=middle;spacingTop=-1;spacingLeft=3;spacingRight=3;rotatable=0;labelPosition=right;points=[];portConstraint=eastwest;fontSize=10;" vertex="1" parent="1">
          <mxGeometry y="50" width="820" height="8" as="geometry" />
        </mxCell>
      </root>
    </mxGraphModel>
  </diagram>
</mxfile>
